<svg width="12" height="12" viewBox="0 0 12 12" fill="none" xmlns="http://www.w3.org/2000/svg">
<g clip-path="url(#clip0_80_1186)">
<path d="M5.70509 0C8.85098 0 11.4102 2.5592 11.4102 5.70509C11.4102 8.85098 8.85098 11.4102 5.70509 11.4102C2.5592 11.4102 -9.53674e-07 8.85098 -9.53674e-07 5.70509C-9.53674e-07 2.5592 2.5592 0 5.70509 0ZM5.22968 5.70509C5.22968 5.968 5.44219 6.18051 5.70509 6.18051H7.60678C7.86969 6.18051 8.0822 5.968 8.0822 5.70509C8.0822 5.44219 7.86969 5.22968 7.60678 5.22968H6.18051V2.37713C6.18051 2.11423 5.968 1.90171 5.70509 1.90171C5.44219 1.90171 5.22968 2.11423 5.22968 2.37713V5.70509Z" fill="#52BFFF"/>
</g>
<defs>
<clipPath id="clip0_80_1186">
<rect width="11.4102" height="11.4102" fill="white"/>
</clipPath>
</defs>
</svg>
